<svg xmlns="http://www.w3.org/2000/svg" width="200" height="200" viewBox="0 0 200 200"><circle cx="100" cy="100" r="90" fill="#11191d"/><polygon points="100.000,10.000 84.152,11.406 77.676,12.812 72.768,14.219 68.681,15.625 65.126,17.031 61.953,18.438 59.074,19.844 56.429,21.250 53.979,22.656 51.694,24.062 49.551,25.469 47.533,26.875 45.627,28.281 43.820,29.688 42.104,31.094 40.471,32.500 38.913,33.906 37.426,35.312 36.004,36.719 34.643,38.125 33.340,39.531 32.091,40.938 30.893,42.344 29.744,43.750 28.641,45.156 27.582,46.562 26.565,47.969 25.588,49.375 24.651,50.781 23.751,52.188 22.887,53.594 22.058,55.000 21.263,56.406 20.500,57.812 19.770,59.219 19.070,60.625 18.401,62.031 17.761,63.438 17.151,64.844 16.568,66.250 16.013,67.656 15.484,69.062 14.983,70.469 14.507,71.875 14.058,73.281 13.633,74.688 13.233,76.094 12.858,77.500 12.507,78.906 12.180,80.312 11.876,81.719 11.596,83.125 11.339,84.531 11.105,85.938 10.894,87.344 10.706,88.750 10.540,90.156 10.396,91.562 10.275,92.969 10.176,94.375 10.099,95.781 10.044,97.188 10.011,98.594 10.000,100.000 10.011,101.406 10.044,102.812 10.099,104.219 10.176,105.625 10.275,107.031 10.396,108.438 10.540,109.844 10.706,111.250 10.894,112.656 11.105,114.062 11.339,115.469 11.596,116.875 11.876,118.281 12.180,119.688 12.507,121.094 12.858,122.500 13.233,123.906 13.633,125.312 14.058,126.719 14.507,128.125 14.983,129.531 15.484,130.938 16.013,132.344 16.568,133.750 17.151,135.156 17.761,136.562 18.401,137.969 19.070,139.375 19.770,140.781 20.500,142.188 21.263,143.594 22.058,145.000 22.887,146.406 23.751,147.812 24.651,149.219 25.588,150.625 26.565,152.031 27.582,153.438 28.641,154.844 29.744,156.250 30.893,157.656 32.091,159.062 33.340,160.469 34.643,161.875 36.004,163.281 37.426,164.688 38.913,166.094 40.471,167.500 42.104,168.906 43.820,170.312 45.627,171.719 47.533,173.125 49.551,174.531 51.694,175.938 53.979,177.344 56.429,178.750 59.074,180.156 61.953,181.562 65.126,182.969 68.681,184.375 72.768,185.781 77.676,187.188 84.152,188.594 100.000,190.000 100.000,190.000 115.293,188.594 121.543,187.188 126.279,185.781 130.223,184.375 133.654,182.969 136.716,181.562 139.495,180.156 142.047,178.750 144.411,177.344 146.616,175.938 148.684,174.531 150.631,173.125 152.471,171.719 154.214,170.312 155.870,168.906 157.447,167.500 158.950,166.094 160.385,164.688 161.757,163.281 163.070,161.875 164.328,160.469 165.533,159.062 166.689,157.656 167.798,156.250 168.863,154.844 169.885,153.438 170.866,152.031 171.809,150.625 172.713,149.219 173.582,147.812 174.416,146.406 175.216,145.000 175.983,143.594 176.719,142.188 177.423,140.781 178.098,139.375 178.744,137.969 179.362,136.562 179.951,135.156 180.513,133.750 181.049,132.344 181.559,130.938 182.043,129.531 182.502,128.125 182.936,126.719 183.346,125.312 183.731,123.906 184.094,122.500 184.432,121.094 184.748,119.688 185.041,118.281 185.311,116.875 185.559,115.469 185.785,114.062 185.988,112.656 186.170,111.250 186.330,109.844 186.469,108.438 186.586,107.031 186.682,105.625 186.756,104.219 186.809,102.812 186.841,101.406 186.851,100.000 186.841,98.594 186.809,97.188 186.756,95.781 186.682,94.375 186.586,92.969 186.469,91.562 186.330,90.156 186.170,88.750 185.988,87.344 185.785,85.938 185.559,84.531 185.311,83.125 185.041,81.719 184.748,80.312 184.432,78.906 184.094,77.500 183.731,76.094 183.346,74.688 182.936,73.281 182.502,71.875 182.043,70.469 181.559,69.062 181.049,67.656 180.513,66.250 179.951,64.844 179.362,63.438 178.744,62.031 178.098,60.625 177.423,59.219 176.719,57.812 175.983,56.406 175.216,55.000 174.416,53.594 173.582,52.188 172.713,50.781 171.809,49.375 170.866,47.969 169.885,46.562 168.863,45.156 167.798,43.750 166.689,42.344 165.533,40.938 164.328,39.531 163.070,38.125 161.757,36.719 160.385,35.312 158.950,33.906 157.447,32.500 155.870,31.094 154.214,29.688 152.471,28.281 150.631,26.875 148.684,25.469 146.616,24.062 144.411,22.656 142.047,21.250 139.495,19.844 136.716,18.438 133.654,17.031 130.223,15.625 126.279,14.219 121.543,12.812 115.293,11.406 100.000,10.000" fill="#dfd4ae"/><circle cx="100" cy="100" r="90" fill="none" stroke="#b69452" stroke-width="5"/></svg>