<svg xmlns="http://www.w3.org/2000/svg" width="200" height="200" viewBox="0 0 200 200"><circle cx="100" cy="100" r="90" fill="#11191d"/><polygon points="100.000,10.000 115.848,11.406 122.324,12.812 127.232,14.219 131.319,15.625 134.874,17.031 138.047,18.438 140.926,19.844 143.571,21.250 146.021,22.656 148.306,24.062 150.449,25.469 152.467,26.875 154.373,28.281 156.180,29.688 157.896,31.094 159.529,32.500 161.087,33.906 162.574,35.312 163.996,36.719 165.357,38.125 166.660,39.531 167.909,40.938 169.107,42.344 170.256,43.750 171.359,45.156 172.418,46.562 173.435,47.969 174.412,49.375 175.349,50.781 176.249,52.188 177.113,53.594 177.942,55.000 178.737,56.406 179.500,57.812 180.230,59.219 180.930,60.625 181.599,62.031 182.239,63.438 182.849,64.844 183.432,66.250 183.987,67.656 184.516,69.062 185.017,70.469 185.493,71.875 185.942,73.281 186.367,74.688 186.767,76.094 187.142,77.500 187.493,78.906 187.820,80.312 188.124,81.719 188.404,83.125 188.661,84.531 188.895,85.938 189.106,87.344 189.294,88.750 189.460,90.156 189.604,91.562 189.725,92.969 189.824,94.375 189.901,95.781 189.956,97.188 189.989,98.594 190.000,100.000 189.989,101.406 189.956,102.812 189.901,104.219 189.824,105.625 189.725,107.031 189.604,108.438 189.460,109.844 189.294,111.250 189.106,112.656 188.895,114.062 188.661,115.469 188.404,116.875 188.124,118.281 187.820,119.688 187.493,121.094 187.142,122.500 186.767,123.906 186.367,125.312 185.942,126.719 185.493,128.125 185.017,129.531 184.516,130.938 183.987,132.344 183.432,133.750 182.849,135.156 182.239,136.562 181.599,137.969 180.930,139.375 180.230,140.781 179.500,142.188 178.737,143.594 177.942,145.000 177.113,146.406 176.249,147.812 175.349,149.219 174.412,150.625 173.435,152.031 172.418,153.438 171.359,154.844 170.256,156.250 169.107,157.656 167.909,159.062 166.660,160.469 165.357,161.875 163.996,163.281 162.574,164.688 161.087,166.094 159.529,167.500 157.896,168.906 156.180,170.312 154.373,171.719 152.467,173.125 150.449,174.531 148.306,175.938 146.021,177.344 143.571,178.750 140.926,180.156 138.047,181.562 134.874,182.969 131.319,184.375 127.232,185.781 122.324,187.188 115.848,188.594 100.000,190.000 100.000,190.000 108.492,188.594 111.962,187.188 114.592,185.781 116.781,184.375 118.686,182.969 120.386,181.562 121.929,180.156 123.347,178.750 124.659,177.344 125.884,175.938 127.032,174.531 128.113,173.125 129.134,171.719 130.103,170.312 131.022,168.906 131.897,167.500 132.732,166.094 133.529,164.688 134.291,163.281 135.020,161.875 135.718,160.469 136.387,159.062 137.029,157.656 137.645,156.250 138.236,154.844 138.804,153.438 139.349,152.031 139.872,150.625 140.374,149.219 140.856,147.812 141.319,146.406 141.764,145.000 142.190,143.594 142.598,142.188 142.990,140.781 143.364,139.375 143.723,137.969 144.066,136.562 144.393,135.156 144.705,133.750 145.003,132.344 145.286,130.938 145.554,129.531 145.809,128.125 146.050,126.719 146.278,125.312 146.492,123.906 146.693,122.500 146.881,121.094 147.056,119.688 147.219,118.281 147.369,116.875 147.507,115.469 147.632,114.062 147.745,112.656 147.846,111.250 147.935,109.844 148.012,108.438 148.077,107.031 148.130,105.625 148.171,104.219 148.201,102.812 148.219,101.406 148.224,100.000 148.219,98.594 148.201,97.188 148.171,95.781 148.130,94.375 148.077,92.969 148.012,91.562 147.935,90.156 147.846,88.750 147.745,87.344 147.632,85.938 147.507,84.531 147.369,83.125 147.219,81.719 147.056,80.312 146.881,78.906 146.693,77.500 146.492,76.094 146.278,74.688 146.050,73.281 145.809,71.875 145.554,70.469 145.286,69.062 145.003,67.656 144.705,66.250 144.393,64.844 144.066,63.438 143.723,62.031 143.364,60.625 142.990,59.219 142.598,57.812 142.190,56.406 141.764,55.000 141.319,53.594 140.856,52.188 140.374,50.781 139.872,49.375 139.349,47.969 138.804,46.562 138.236,45.156 137.645,43.750 137.029,42.344 136.387,40.938 135.718,39.531 135.020,38.125 134.291,36.719 133.529,35.312 132.732,33.906 131.897,32.500 131.022,31.094 130.103,29.688 129.134,28.281 128.113,26.875 127.032,25.469 125.884,24.062 124.659,22.656 123.347,21.250 121.929,19.844 120.386,18.438 118.686,17.031 116.781,15.625 114.592,14.219 111.962,12.812 108.492,11.406 100.000,10.000" fill="#dfd4ae"/><circle cx="100" cy="100" r="90" fill="none" stroke="#7b7c70" stroke-width="1"/></svg>